<svg width="19" height="19" viewBox="0 0 19 19" fill="none" xmlns="http://www.w3.org/2000/svg">
<path fill-rule="evenodd" clip-rule="evenodd" d="M11.1599 1.4C11.1599 0.902944 11.5628 0.5 12.0599 0.5H15.6599C16.3759 0.5 17.0627 0.784463 17.5691 1.29081C18.0754 1.79716 18.3599 2.48392 18.3599 3.2V15.8C18.3599 16.5161 18.0754 17.2028 17.5691 17.7092C17.0627 18.2155 16.3759 18.5 15.6599 18.5H12.0599C11.5628 18.5 11.1599 18.0971 11.1599 17.6C11.1599 17.1029 11.5628 16.7 12.0599 16.7H15.6599C15.8986 16.7 16.1275 16.6052 16.2963 16.4364C16.465 16.2676 16.5599 16.0387 16.5599 15.8V3.2C16.5599 2.96131 16.465 2.73239 16.2963 2.5636C16.1275 2.39482 15.8986 2.3 15.6599 2.3H12.0599C11.5628 2.3 11.1599 1.89706 11.1599 1.4ZM6.92347 4.3636C7.27494 4.01213 7.84479 4.01213 8.19626 4.3636L12.6963 8.8636C13.0477 9.21508 13.0477 9.78492 12.6963 10.1364L8.19626 14.6364C7.84479 14.9879 7.27494 14.9879 6.92347 14.6364C6.572 14.2849 6.572 13.7151 6.92347 13.3636L9.88707 10.4H1.25986C0.762807 10.4 0.359863 9.99706 0.359863 9.5C0.359863 9.00294 0.762807 8.6 1.25986 8.6H9.88707L6.92347 5.6364C6.572 5.28492 6.572 4.71508 6.92347 4.3636Z" fill="black"/>
</svg>
