<svg width="19" height="19" viewBox="0 0 19 19" fill="none" xmlns="http://www.w3.org/2000/svg">
<path fill-rule="evenodd" clip-rule="evenodd" d="M3.95986 0.5C4.45692 0.5 4.85986 0.902944 4.85986 1.4V4.1C4.85986 4.59706 4.45692 5 3.95986 5C3.46281 5 3.05986 4.59706 3.05986 4.1V1.4C3.05986 0.902944 3.46281 0.5 3.95986 0.5ZM7.55986 0.5C8.05692 0.5 8.45986 0.902944 8.45986 1.4V4.1C8.45986 4.59706 8.05692 5 7.55986 5C7.06281 5 6.65986 4.59706 6.65986 4.1V1.4C6.65986 0.902944 7.06281 0.5 7.55986 0.5ZM12.0599 0.5C12.5569 0.5 12.9599 0.902944 12.9599 1.4V4.1C12.9599 4.59706 12.5569 5 12.0599 5C11.5628 5 11.1599 4.59706 11.1599 4.1V1.4C11.1599 0.902944 11.5628 0.5 12.0599 0.5ZM0.359863 7.7C0.359863 7.20294 0.762807 6.8 1.25986 6.8H14.5799C15.6097 6.8 16.5792 7.24819 17.2806 8.01532C17.9795 8.77975 18.3599 9.8006 18.3599 10.85C18.3599 11.8994 17.9795 12.9202 17.2806 13.6847C16.6167 14.4108 15.7127 14.8511 14.7446 14.8962C14.6616 15.826 14.2427 16.6974 13.5629 17.3548C12.8012 18.0913 11.7744 18.5 10.7099 18.5H4.40986C3.34529 18.5 2.3185 18.0913 1.55683 17.3548C0.794148 16.6172 0.359863 15.6104 0.359863 14.5538V7.7ZM14.7599 13.0906C15.1956 13.0451 15.619 12.8344 15.9521 12.4701C16.3334 12.053 16.5599 11.4715 16.5599 10.85C16.5599 10.2285 16.3334 9.64695 15.9521 9.22991C15.619 8.86558 15.1956 8.65495 14.7599 8.6094V13.0906Z" fill="black"/>
</svg>
